<svg preserveAspectRatio="none" width="100%" height="100%" overflow="visible" style="display: block;" viewBox="0 0 15 12" fill="none" xmlns="http://www.w3.org/2000/svg">
<path id="Icon" d="M12.6667 4.33333V2.8C12.6667 2.05327 12.6667 1.6799 12.5213 1.39468C12.3935 1.1438 12.1895 0.939825 11.9387 0.811994C11.6534 0.66667 11.2801 0.666669 10.5333 0.666668H2.8C2.05326 0.666668 1.6799 0.666668 1.39468 0.811993C1.1438 0.939824 0.939824 1.1438 0.811993 1.39468C0.666668 1.6799 0.666668 2.05326 0.666668 2.8V9.2C0.666668 9.94674 0.666668 10.3201 0.811992 10.6053C0.939824 10.8562 1.1438 11.0602 1.39468 11.188C1.6799 11.3333 2.05326 11.3333 2.8 11.3333L10.5333 11.3333C11.2801 11.3333 11.6534 11.3333 11.9387 11.188C12.1895 11.0602 12.3935 10.8562 12.5213 10.6053C12.6667 10.3201 12.6667 9.94674 12.6667 9.2V7.66667M9.33333 6C9.33333 5.69023 9.33333 5.53535 9.35895 5.40655C9.46416 4.87763 9.87763 4.46416 10.4065 4.35895C10.5353 4.33333 10.6902 4.33333 11 4.33333H12.3333C12.6431 4.33333 12.798 4.33333 12.9268 4.35895C13.4557 4.46416 13.8692 4.87763 13.9744 5.40655C14 5.53535 14 5.69023 14 6C14 6.30977 14 6.46466 13.9744 6.59346C13.8692 7.12238 13.4557 7.53584 12.9268 7.64105C12.798 7.66667 12.6431 7.66667 12.3333 7.66667H11C10.6902 7.66667 10.5353 7.66667 10.4065 7.64105C9.87763 7.53584 9.46416 7.12238 9.35895 6.59345C9.33333 6.46466 9.33333 6.30977 9.33333 6Z" stroke="var(--stroke-0, white)" stroke-width="1.33333" stroke-linecap="round" stroke-linejoin="round"/>
</svg>
