<svg preserveAspectRatio="none" width="100%" height="100%" overflow="visible" style="display: block;" viewBox="0 0 14 15" fill="none" xmlns="http://www.w3.org/2000/svg">
<path id="Icon" d="M9.33333 3.33333V2.8C9.33333 2.05326 9.33333 1.6799 9.18801 1.39468C9.06018 1.1438 8.8562 0.939824 8.60532 0.811992C8.32011 0.666668 7.94674 0.666668 7.2 0.666668H6.13333C5.3866 0.666668 5.01323 0.666668 4.72801 0.811992C4.47713 0.939824 4.27316 1.1438 4.14532 1.39468C4 1.6799 4 2.05326 4 2.8V3.33333M5.33333 7V10.3333M8 7V10.3333M0.666667 3.33333H12.6667M11.3333 3.33333V10.8C11.3333 11.9201 11.3333 12.4802 11.1153 12.908C10.9236 13.2843 10.6176 13.5903 10.2413 13.782C9.81349 14 9.25344 14 8.13333 14H5.2C4.0799 14 3.51984 14 3.09202 13.782C2.71569 13.5903 2.40973 13.2843 2.21799 12.908C2 12.4802 2 11.9201 2 10.8V3.33333" stroke="var(--stroke-0, #CA2C17)" stroke-width="1.33333" stroke-linecap="round" stroke-linejoin="round"/>
</svg>
