<svg preserveAspectRatio="none" width="100%" height="100%" overflow="visible" style="display: block;" viewBox="0 0 25 30" fill="none" xmlns="http://www.w3.org/2000/svg">
<path id="Icon" d="M14.96 1.72665V7.34418C14.96 8.10585 14.96 8.48669 15.1082 8.77761C15.2386 9.03351 15.4467 9.24156 15.7026 9.37195C15.9935 9.52018 16.3743 9.52018 17.136 9.52018H22.7535M14.96 21.7601H6.8M17.68 16.3201H6.8M23.12 12.2241V22.0321C23.12 24.3171 23.12 25.4596 22.6753 26.3324C22.2841 27.1001 21.66 27.7242 20.8923 28.1154C20.0195 28.5601 18.877 28.5601 16.592 28.5601H7.888C5.60299 28.5601 4.46048 28.5601 3.58772 28.1154C2.82002 27.7242 2.19586 27.1001 1.80469 26.3324C1.36 25.4596 1.36 24.3171 1.36 22.0321V7.88809C1.36 5.60307 1.36 4.46056 1.80469 3.5878C2.19586 2.8201 2.82002 2.19594 3.58772 1.80478C4.46048 1.36009 5.60299 1.36009 7.888 1.36009H12.256C13.2539 1.36009 13.7529 1.36009 14.2225 1.47282C14.6388 1.57276 15.0368 1.73761 15.4018 1.96131C15.8135 2.21363 16.1664 2.56645 16.872 3.27209L21.208 7.60808C21.9136 8.31372 22.2665 8.66654 22.5188 9.07828C22.7425 9.44333 22.9073 9.84131 23.0073 10.2576C23.12 10.7272 23.12 11.2261 23.12 12.2241Z" stroke="var(--stroke-0, #868686)" stroke-width="2.72" stroke-linecap="round" stroke-linejoin="round"/>
</svg>
