<svg preserveAspectRatio="none" width="100%" height="100%" overflow="visible" style="display: block;" viewBox="0 0 15 15" fill="none" xmlns="http://www.w3.org/2000/svg">
<path id="Icon" d="M11 5.88562L8.33336 3.21895M0.666671 13.5523L2.92292 13.3016C3.19858 13.271 3.33641 13.2556 3.46524 13.2139C3.57953 13.1769 3.6883 13.1247 3.7886 13.0585C3.90164 12.984 3.9997 12.8859 4.19582 12.6898L13 3.88562C13.7364 3.14924 13.7364 1.95533 13 1.21895C12.2636 0.482572 11.0697 0.482571 10.3334 1.21895L1.52916 10.0231C1.33304 10.2193 1.23497 10.3173 1.16043 10.4304C1.09429 10.5307 1.04201 10.6394 1.00501 10.7537C0.963308 10.8826 0.947994 11.0204 0.917365 11.296L0.666671 13.5523Z" stroke="var(--stroke-0, #868686)" stroke-width="1.33333" stroke-linecap="round" stroke-linejoin="round"/>
</svg>
