<svg width="20" height="20" viewBox="0 0 20 20" fill="none" xmlns="http://www.w3.org/2000/svg">
<g clip-path="url(#clip0_3535_6188)">
<path d="M20 10C20 15.5228 15.5228 20 10 20C4.47719 20 0 15.5228 0 10C0 10.0023 10 0.00113281 10 0C15.5228 0 20 4.47719 20 10Z" fill="#0052B4" style="fill:#0052B4;fill:color(display-p3 0.0000 0.3216 0.7059);fill-opacity:1;"/>
<path d="M9.97363 10.0014H10.0004C10.0004 9.99234 10.0004 9.98365 10.0004 9.97461C9.99152 9.98357 9.9826 9.99249 9.97363 10.0014Z" fill="#F0F0F0" style="fill:#F0F0F0;fill:color(display-p3 0.9412 0.9412 0.9412);fill-opacity:1;"/>
<path d="M9.99999 5.21738C9.99999 3.45781 9.99999 2.3048 9.99999 0H9.99831C4.47625 0.000898437 0 4.47766 0 9.99996H5.21738V7.06199L8.15535 9.99996H9.97328C9.98222 9.99105 9.99113 9.98215 10 9.9732C10 9.29949 10 8.69836 10 8.15539L7.06203 5.21738H9.99999Z" fill="#F0F0F0" style="fill:#F0F0F0;fill:color(display-p3 0.9412 0.9412 0.9412);fill-opacity:1;"/>
<path d="M5.05953 1.30469C3.49551 2.19527 2.19527 3.49551 1.30469 5.05953V10.0004H3.9134V3.91344V3.9134H10.0004C10.0004 3.09063 10.0004 2.3068 10.0004 1.30469H5.05953Z" fill="#D80027" style="fill:#D80027;fill:color(display-p3 0.8471 0.0000 0.1529);fill-opacity:1;"/>
<path d="M10.0003 8.76963L6.4475 5.21681H5.21777C5.21777 5.21678 5.21777 5.21681 5.21777 5.21681L10.0003 9.99936H10.0003C10.0003 9.99936 10.0003 9.1515 10.0003 8.76963Z" fill="#D80027" style="fill:#D80027;fill:color(display-p3 0.8471 0.0000 0.1529);fill-opacity:1;"/>
<path d="M6.03059 11.7383L6.57941 12.8859L7.81875 12.5994L7.26375 13.744L8.26039 14.5344L7.01949 14.8141L7.02297 16.0861L6.03059 15.2903L5.03824 16.0861L5.04172 14.8141L3.80078 14.5344L4.79746 13.744L4.24238 12.5994L5.4818 12.8859L6.03059 11.7383Z" fill="#F0F0F0" style="fill:#F0F0F0;fill:color(display-p3 0.9412 0.9412 0.9412);fill-opacity:1;"/>
<path d="M14.9713 13.9121L15.2457 14.4859L15.8654 14.3427L15.5879 14.915L16.0862 15.3102L15.4658 15.45L15.4675 16.086L14.9713 15.6881L14.4752 16.086L14.4769 15.45L13.8564 15.3102L14.3548 14.915L14.0773 14.3427L14.6969 14.4859L14.9713 13.9121Z" fill="#F0F0F0" style="fill:#F0F0F0;fill:color(display-p3 0.9412 0.9412 0.9412);fill-opacity:1;"/>
<path d="M12.4186 7.82617L12.693 8.4L13.3127 8.25672L13.0352 8.82902L13.5335 9.22422L12.9131 9.36406L12.9148 10.0001L12.4186 9.60215L11.9225 10.0001L11.9241 9.36406L11.3037 9.22422L11.802 8.82902L11.5245 8.25672L12.1442 8.4L12.4186 7.82617Z" fill="#F0F0F0" style="fill:#F0F0F0;fill:color(display-p3 0.9412 0.9412 0.9412);fill-opacity:1;"/>
<path d="M14.9713 4.34766L15.2457 4.92148L15.8654 4.77824L15.5879 5.35055L16.0862 5.7457L15.4658 5.88559L15.4675 6.5216L14.9713 6.12367L14.4752 6.5216L14.4769 5.88559L13.8564 5.7457L14.3547 5.35055L14.0773 4.77824L14.6969 4.92148L14.9713 4.34766Z" fill="#F0F0F0" style="fill:#F0F0F0;fill:color(display-p3 0.9412 0.9412 0.9412);fill-opacity:1;"/>
<path d="M17.2009 6.95508L17.4752 7.52891L18.0949 7.38562L17.8174 7.95793L18.3157 8.35312L17.6953 8.49301L17.697 9.12898L17.2009 8.73109L16.7047 9.12898L16.7064 8.49301L16.0859 8.35312L16.5843 7.95793L16.3068 7.38562L16.9264 7.52891L17.2009 6.95508Z" fill="#F0F0F0" style="fill:#F0F0F0;fill:color(display-p3 0.9412 0.9412 0.9412);fill-opacity:1;"/>
<path d="M15.6067 10L15.8225 10.6643H16.5211L15.9559 11.0749L16.1718 11.7391L15.6067 11.3286L15.0416 11.7391L15.2575 11.0749L14.6924 10.6643H15.3909L15.6067 10Z" fill="#F0F0F0" style="fill:#F0F0F0;fill:color(display-p3 0.9412 0.9412 0.9412);fill-opacity:1;"/>
</g>
<defs>
<clipPath id="clip0_3535_6188">
<rect width="20" height="20" fill="white" style="fill:white;fill-opacity:1;"/>
</clipPath>
</defs>
</svg>
