<svg width="16" height="16" viewBox="0 0 16 16" fill="none" xmlns="http://www.w3.org/2000/svg">
<path d="M3.33301 10.0007C2.71175 10.0007 2.40112 10.0007 2.1561 9.89916C1.82939 9.76383 1.56983 9.50427 1.4345 9.17756C1.33301 8.93254 1.33301 8.62191 1.33301 8.00065V3.46732C1.33301 2.72058 1.33301 2.34721 1.47833 2.062C1.60616 1.81111 1.81014 1.60714 2.06102 1.47931C2.34624 1.33398 2.7196 1.33398 3.46634 1.33398H7.99968C8.62093 1.33398 8.93156 1.33398 9.17659 1.43548C9.50329 1.5708 9.76286 1.83037 9.89818 2.15707C9.99968 2.4021 9.99968 2.71273 9.99968 3.33398M8.13301 14.6673H12.533C13.2797 14.6673 13.6531 14.6673 13.9383 14.522C14.1892 14.3942 14.3932 14.1902 14.521 13.9393C14.6663 13.6541 14.6663 13.2807 14.6663 12.534V8.13399C14.6663 7.38725 14.6663 7.01388 14.521 6.72867C14.3932 6.47778 14.1892 6.27381 13.9383 6.14598C13.6531 6.00065 13.2797 6.00065 12.533 6.00065H8.13301C7.38627 6.00065 7.0129 6.00065 6.72769 6.14598C6.47681 6.27381 6.27283 6.47778 6.145 6.72867C5.99968 7.01388 5.99968 7.38725 5.99968 8.13399V12.534C5.99968 13.2807 5.99968 13.6541 6.145 13.9393C6.27283 14.1902 6.47681 14.3942 6.72769 14.522C7.0129 14.6673 7.38627 14.6673 8.13301 14.6673Z" stroke="#1246FF" style="stroke:#1246FF;stroke:color(display-p3 0.0706 0.2745 1.0000);stroke-opacity:1;" stroke-width="1.48148" stroke-linecap="round" stroke-linejoin="round"/>
</svg>
