<svg width="21" height="21" viewBox="0 0 21 21" fill="none" xmlns="http://www.w3.org/2000/svg">
<path d="M15.3661 13.8576C16.5793 14.467 17.6195 15.4451 18.3788 16.6682C18.5291 16.9104 18.6043 17.0315 18.6303 17.1992C18.6831 17.54 18.4501 17.9589 18.1327 18.0938C17.9765 18.1602 17.8008 18.1602 17.4494 18.1602M13.6994 10.2704C14.9342 9.65673 15.7827 8.38254 15.7827 6.91016C15.7827 5.43777 14.9342 4.16358 13.6994 3.54996M12.0327 6.91016C12.0327 8.98122 10.3538 10.6602 8.28274 10.6602C6.21167 10.6602 4.53274 8.98122 4.53274 6.91016C4.53274 4.83909 6.21167 3.16016 8.28274 3.16016C10.3538 3.16016 12.0327 4.83909 12.0327 6.91016ZM2.49877 16.4421C3.82736 14.4473 5.92389 13.1602 8.28274 13.1602C10.6416 13.1602 12.7381 14.4473 14.0667 16.4421C14.3578 16.8791 14.5033 17.0976 14.4865 17.3768C14.4735 17.5941 14.331 17.8601 14.1574 17.9915C13.9343 18.1602 13.6276 18.1602 13.0141 18.1602H3.55137C2.93788 18.1602 2.63114 18.1602 2.40811 17.9915C2.23445 17.8601 2.09198 17.5941 2.07894 17.3768C2.06218 17.0976 2.20771 16.8791 2.49877 16.4421Z" stroke="#1246FF" style="stroke:#1246FF;stroke:color(display-p3 0.0706 0.2745 1.0000);stroke-opacity:1;" stroke-width="2" stroke-linecap="round" stroke-linejoin="round"/>
</svg>
