<svg preserveAspectRatio="none" width="100%" height="100%" overflow="visible" style="display: block;" viewBox="0 0 15 15" fill="none" xmlns="http://www.w3.org/2000/svg">
<g id="Icon">
<path d="M4 8.33333L4.52297 9.37928C4.69997 9.73326 4.78846 9.91026 4.90669 10.0636C5.01159 10.1997 5.1336 10.3217 5.2697 10.4266C5.42308 10.5449 5.60007 10.6334 5.95406 10.8104L7 11.3333L5.95406 11.8563C5.60007 12.0333 5.42308 12.1218 5.2697 12.24C5.1336 12.3449 5.01159 12.4669 4.90669 12.603C4.78846 12.7564 4.69997 12.9334 4.52297 13.2874L4 14.3333L3.47703 13.2874C3.30003 12.9334 3.21154 12.7564 3.09331 12.603C2.98841 12.4669 2.8664 12.3449 2.7303 12.24C2.57692 12.1218 2.39993 12.0333 2.04594 11.8563L1 11.3333L2.04594 10.8104C2.39993 10.6334 2.57692 10.5449 2.7303 10.4266C2.8664 10.3217 2.98841 10.1997 3.09331 10.0636C3.21154 9.91026 3.30003 9.73326 3.47703 9.37928L4 8.33333Z" stroke="var(--stroke-0, #1246FF)" stroke-width="1.11111" stroke-linecap="round" stroke-linejoin="round"/>
<path d="M9.66667 1L10.4524 3.04295C10.6404 3.53177 10.7344 3.77618 10.8806 3.98176C11.0102 4.16397 11.1694 4.32316 11.3516 4.45272C11.5572 4.59891 11.8016 4.69291 12.2904 4.88092L14.3333 5.66667L12.2904 6.45241C11.8016 6.64042 11.5572 6.73443 11.3516 6.88061C11.1694 7.01017 11.0102 7.16936 10.8806 7.35157C10.7344 7.55716 10.6404 7.80157 10.4524 8.29039L9.66667 10.3333L8.88092 8.29039C8.69291 7.80157 8.59891 7.55716 8.45272 7.35157C8.32316 7.16936 8.16397 7.01017 7.98176 6.88061C7.77618 6.73443 7.53177 6.64042 7.04295 6.45241L5 5.66667L7.04295 4.88092C7.53177 4.69291 7.77618 4.59891 7.98176 4.45272C8.16397 4.32316 8.32316 4.16397 8.45272 3.98176C8.59891 3.77618 8.69291 3.53177 8.88092 3.04295L9.66667 1Z" stroke="var(--stroke-0, #1246FF)" stroke-width="1.11111" stroke-linecap="round" stroke-linejoin="round"/>
</g>
</svg>
