<svg preserveAspectRatio="none" width="100%" height="100%" overflow="visible" style="display: block;" viewBox="0 0 15 15" fill="none" xmlns="http://www.w3.org/2000/svg">
<path id="Icon" d="M10.6387 1V8.33333M13.972 6.2V3.13333C13.972 2.3866 13.972 2.01323 13.8267 1.72801C13.6989 1.47713 13.4949 1.27316 13.244 1.14532C12.9588 1 12.5854 1 11.8387 1H4.71738C3.74306 1 3.2559 1 2.86243 1.17829C2.51564 1.33543 2.22091 1.58828 2.01287 1.90714C1.77682 2.26893 1.70274 2.75042 1.55459 3.71342L1.20587 5.98008C1.01047 7.25021 0.912768 7.88527 1.10124 8.37942C1.26667 8.81313 1.57781 9.17579 1.98132 9.40525C2.44106 9.66667 3.0836 9.66667 4.36866 9.66667H4.90537C5.27874 9.66667 5.46543 9.66667 5.60803 9.73933C5.73348 9.80324 5.83546 9.90523 5.89938 10.0307C5.97204 10.1733 5.97204 10.36 5.97204 10.7333V12.6894C5.97204 13.5973 6.70804 14.3333 7.61593 14.3333C7.83248 14.3333 8.02872 14.2058 8.11667 14.0079L10.3572 8.96679C10.4591 8.7375 10.51 8.62286 10.5906 8.53879C10.6618 8.46449 10.7492 8.40767 10.846 8.37279C10.9555 8.33333 11.081 8.33333 11.3319 8.33333H11.8387C12.5854 8.33333 12.9588 8.33333 13.244 8.18801C13.4949 8.06018 13.6989 7.8562 13.8267 7.60532C13.972 7.32011 13.972 6.94674 13.972 6.2Z" stroke="var(--stroke-0, #B42318)" stroke-width="1.11111" stroke-linecap="round" stroke-linejoin="round"/>
</svg>
