<svg width="16" height="16" viewBox="0 0 16 16" fill="none" xmlns="http://www.w3.org/2000/svg">
<path d="M12.0001 6.6672L9.33343 4.00053M1.66675 14.3339L3.92299 14.0832C4.19865 14.0525 4.33648 14.0372 4.46531 13.9955C4.57961 13.9585 4.68838 13.9062 4.78867 13.8401C4.90172 13.7656 4.99978 13.6675 5.1959 13.4714L14.0001 4.6672C14.7365 3.93082 14.7365 2.73691 14.0001 2.00053C13.2637 1.26415 12.0698 1.26415 11.3334 2.00053L2.52923 10.8047C2.33311 11.0008 2.23505 11.0989 2.16051 11.2119C2.09437 11.3122 2.04209 11.421 2.00509 11.5353C1.96339 11.6641 1.94807 11.802 1.91744 12.0776L1.66675 14.3339Z" stroke="#868686" style="stroke:#868686;stroke:color(display-p3 0.5274 0.5274 0.5274);stroke-opacity:1;" stroke-width="1.33333" stroke-linecap="round" stroke-linejoin="round"/>
</svg>
