<svg preserveAspectRatio="none" width="100%" height="100%" overflow="visible" style="display: block;" viewBox="0 0 32 32" fill="none" xmlns="http://www.w3.org/2000/svg">
<g id="file-05">
<rect width="32" height="32" rx="8" fill="var(--fill-0, #F5F5F5)"/>
<path id="Icon" d="M17.2799 9.77289V12.4164C17.2799 12.7749 17.2799 12.9541 17.3496 13.091C17.411 13.2114 17.5089 13.3093 17.6293 13.3707C17.7662 13.4404 17.9454 13.4404 18.3039 13.4404H20.9474M17.2799 19.2004H13.4399M18.5599 16.6404H13.4399M21.1199 14.7129V19.3284C21.1199 20.4037 21.1199 20.9413 20.9106 21.3521C20.7265 21.7133 20.4328 22.007 20.0715 22.1911C19.6608 22.4004 19.1232 22.4004 18.0479 22.4004H13.9519C12.8766 22.4004 12.3389 22.4004 11.9282 22.1911C11.5669 22.007 11.2732 21.7133 11.0892 21.3521C10.8799 20.9413 10.8799 20.4037 10.8799 19.3284V12.6724C10.8799 11.5971 10.8799 11.0594 11.0892 10.6487C11.2732 10.2875 11.5669 9.99373 11.9282 9.80966C12.3389 9.60039 12.8766 9.60039 13.9519 9.60039H16.0074C16.477 9.60039 16.7118 9.60039 16.9328 9.65344C17.1287 9.70047 17.316 9.77805 17.4878 9.88332C17.6815 10.0021 17.8476 10.1681 18.1797 10.5002L20.2201 12.5406C20.5522 12.8727 20.7182 13.0387 20.837 13.2325C20.9422 13.4043 21.0198 13.5916 21.0668 13.7875C21.1199 14.0084 21.1199 14.2432 21.1199 14.7129Z" stroke="var(--stroke-0, #868686)" stroke-width="1.28" stroke-linecap="round" stroke-linejoin="round"/>
</g>
</svg>
