<svg preserveAspectRatio="none" width="100%" height="100%" overflow="visible" style="display: block;" viewBox="0 0 32 32" fill="none" xmlns="http://www.w3.org/2000/svg">
<g id="file-05">
<rect width="32" height="32" rx="8" fill="var(--fill-0, #F5F5F5)"/>
<path id="Icon" d="M17.2799 9.77211V12.4157C17.2799 12.7741 17.2799 12.9533 17.3496 13.0902C17.411 13.2106 17.5089 13.3085 17.6293 13.3699C17.7662 13.4397 17.9454 13.4397 18.3039 13.4397H20.9474M17.2799 19.1996H13.4399M18.5599 16.6396H13.4399M21.1199 14.7121V19.3276C21.1199 20.4029 21.1199 20.9406 20.9106 21.3513C20.7265 21.7125 20.4328 22.0063 20.0715 22.1903C19.6608 22.3996 19.1232 22.3996 18.0479 22.3996H13.9519C12.8766 22.3996 12.3389 22.3996 11.9282 22.1903C11.5669 22.0063 11.2732 21.7125 11.0892 21.3513C10.8799 20.9406 10.8799 20.4029 10.8799 19.3276V12.6716C10.8799 11.5963 10.8799 11.0587 11.0892 10.6479C11.2732 10.2867 11.5669 9.99295 11.9282 9.80888C12.3389 9.59961 12.8766 9.59961 13.9519 9.59961H16.0074C16.477 9.59961 16.7118 9.59961 16.9328 9.65266C17.1287 9.69969 17.316 9.77727 17.4878 9.88254C17.6815 10.0013 17.8476 10.1673 18.1797 10.4994L20.2201 12.5398C20.5522 12.8719 20.7182 13.0379 20.837 13.2317C20.9422 13.4035 21.0198 13.5908 21.0668 13.7867C21.1199 14.0077 21.1199 14.2425 21.1199 14.7121Z" stroke="var(--stroke-0, #868686)" stroke-width="1.28" stroke-linecap="round" stroke-linejoin="round"/>
</g>
</svg>
