<svg preserveAspectRatio="none" width="100%" height="100%" overflow="visible" style="display: block;" viewBox="0 0 17 19" fill="none" xmlns="http://www.w3.org/2000/svg">
<path id="Icon" d="M3.61111 15.6944H2.36111C1.44064 15.6944 0.694444 14.9483 0.694444 14.0278V2.36111C0.694444 1.44064 1.44064 0.694444 2.36111 0.694444H14.0278C14.9483 0.694444 15.6944 1.44064 15.6944 2.36111V14.0278C15.6944 14.9483 14.9483 15.6944 14.0278 15.6944H12.7778M8.19444 14.8611C9.57516 14.8611 10.6944 13.7418 10.6944 12.3611C10.6944 10.9804 9.57516 9.86111 8.19444 9.86111C6.81373 9.86111 5.69444 10.9804 5.69444 12.3611C5.69444 13.7418 6.81373 14.8611 8.19444 14.8611ZM8.19444 14.8611L8.21231 14.8609L5.55167 17.5216L3.19465 15.1646L5.71082 12.6484M8.19444 14.8611L10.8551 17.5216L13.2121 15.1646L10.696 12.6484M5.69444 4.02778H10.6944M4.02778 6.94444H12.3611" stroke="var(--stroke-0, #1246FF)" stroke-width="1.38889" stroke-linecap="round" stroke-linejoin="round"/>
</svg>
