<svg preserveAspectRatio="none" width="100%" height="100%" overflow="visible" style="display: block;" viewBox="0 0 19 17" fill="none" xmlns="http://www.w3.org/2000/svg">
<path id="Icon" d="M12.6667 4.33345C12.6667 3.55848 12.6667 3.17099 12.5815 2.85307C12.3503 1.99034 11.6764 1.31647 10.8137 1.08531C10.4958 1.00012 10.1083 1.00012 9.33334 1.00012C8.55836 1.00012 8.17087 1.00012 7.85296 1.08531C6.99023 1.31647 6.31636 1.99034 6.08519 2.85307C6 3.17099 6 3.55848 6 4.33345M3.66667 16.0001H15C15.9334 16.0001 16.4001 16.0001 16.7567 15.8185C17.0703 15.6587 17.3252 15.4037 17.485 15.0901C17.6667 14.7336 17.6667 14.2669 17.6667 13.3335V7.00012C17.6667 6.0667 17.6667 5.59999 17.485 5.24347C17.3252 4.92987 17.0703 4.6749 16.7567 4.51511C16.4001 4.33345 15.9334 4.33345 15 4.33345H3.66667C2.73325 4.33345 2.26654 4.33345 1.91002 4.51511C1.59641 4.6749 1.34145 4.92987 1.18166 5.24347C1 5.59999 1 6.0667 1 7.00012V13.3335C1 14.2669 1 14.7336 1.18166 15.0901C1.34145 15.4037 1.59641 15.6587 1.91002 15.8185C2.26654 16.0001 2.73325 16.0001 3.66667 16.0001Z" stroke="var(--stroke-0, #1246FF)" stroke-width="2" stroke-linecap="round" stroke-linejoin="round"/>
</svg>
