<svg preserveAspectRatio="none" width="100%" height="100%" overflow="visible" style="display: block;" viewBox="0 0 14 15" fill="none" xmlns="http://www.w3.org/2000/svg">
<path id="Icon" d="M2.88889 12.5556H1.88889C1.15251 12.5556 0.555556 11.9586 0.555556 11.2222V1.88889C0.555556 1.15251 1.15251 0.555556 1.88889 0.555556H11.2222C11.9586 0.555556 12.5556 1.15251 12.5556 1.88889V11.2222C12.5556 11.9586 11.9586 12.5556 11.2222 12.5556H10.2222M6.55556 11.8889C7.66013 11.8889 8.55556 10.9935 8.55556 9.88889C8.55556 8.78432 7.66013 7.88889 6.55556 7.88889C5.45099 7.88889 4.55556 8.78432 4.55556 9.88889C4.55556 10.9935 5.45099 11.8889 6.55556 11.8889ZM6.55556 11.8889L6.56985 11.8888L4.44134 14.0173L2.55572 12.1316L4.56866 10.1187M6.55556 11.8889L8.6841 14.0173L10.5697 12.1316L8.55678 10.1187M4.55556 3.22222H8.55556M3.22222 5.55556H9.88889" stroke="var(--stroke-0, #1246FF)" stroke-width="1.11111" stroke-linecap="round" stroke-linejoin="round"/>
</svg>
