<svg preserveAspectRatio="none" width="100%" height="100%" overflow="visible" style="display: block;" viewBox="0 0 14 15" fill="none" xmlns="http://www.w3.org/2000/svg">
<path id="Icon" d="M0.833479 6.36547C0.833479 5.98257 0.833479 5.79112 0.882831 5.6148C0.926547 5.45862 0.99839 5.31173 1.09483 5.18134C1.2037 5.03414 1.35483 4.9166 1.65707 4.68152L6.17861 1.16477C6.41283 0.9826 6.52994 0.891516 6.65925 0.856503C6.77335 0.82561 6.89361 0.82561 7.00771 0.856503C7.13702 0.891516 7.25413 0.9826 7.48835 1.16477L12.0099 4.68152C12.3121 4.9166 12.4633 5.03414 12.5721 5.18134C12.6686 5.31173 12.7404 5.45862 12.7841 5.6148C12.8335 5.79112 12.8335 5.98257 12.8335 6.36547V11.1888C12.8335 11.9355 12.8335 12.3089 12.6882 12.5941C12.5603 12.845 12.3564 13.0489 12.1055 13.1768C11.8203 13.3221 11.4469 13.3221 10.7001 13.3221H2.96681C2.22008 13.3221 1.84671 13.3221 1.56149 13.1768C1.31061 13.0489 1.10664 12.845 0.978804 12.5941C0.833479 12.3089 0.833479 11.9355 0.833479 11.1888V6.36547Z" stroke="var(--stroke-0, #1246FF)" stroke-width="1.66667" stroke-linecap="round" stroke-linejoin="round"/>
</svg>
