<svg preserveAspectRatio="none" width="100%" height="100%" overflow="visible" style="display: block;" viewBox="0 0 10 9" fill="none" xmlns="http://www.w3.org/2000/svg">
<path id="Openwork Logomark" fill-rule="evenodd" clip-rule="evenodd" d="M5 0C6.83734 0 8.38749 1.2296 8.87245 2.91081C9.49781 2.92628 10 3.43808 10 4.06716C10 4.70375 9.48576 5.22023 8.85003 5.22386C8.34115 6.86653 6.80992 8.0597 5 8.0597C3.19008 8.0597 1.65885 6.86653 1.14998 5.22386C0.51424 5.22023 0 4.70375 0 4.06716C0 3.43808 0.502193 2.92628 1.12755 2.91081C1.61252 1.2296 3.16266 0 5 0ZM1.42948 2.94279C1.89486 1.41227 3.31736 0.298507 5 0.298507C6.68264 0.298507 8.10514 1.41227 8.57052 2.94279C8.06331 3.0654 7.68657 3.52229 7.68657 4.06716C7.68657 4.60422 8.05257 5.05579 8.54875 5.18605C8.06207 6.68086 6.6572 7.7612 5 7.7612C3.3428 7.7612 1.93793 6.68086 1.45125 5.18605C1.94743 5.05579 2.31343 4.60422 2.31343 4.06716C2.31343 3.52229 1.93669 3.0654 1.42948 2.94279Z" fill="var(--fill-0, white)"/>
</svg>
