<svg preserveAspectRatio="none" width="100%" height="100%" overflow="visible" style="display: block;" viewBox="0 0 40 33" fill="none" xmlns="http://www.w3.org/2000/svg">
<path id="Openwork Logomark" fill-rule="evenodd" clip-rule="evenodd" d="M20 0C27.3493 0 33.5499 4.91841 35.4898 11.6432C37.9912 11.7051 40 13.7523 40 16.2687C40 18.815 37.943 20.8809 35.4001 20.8954C33.3646 27.4661 27.2397 32.2388 20 32.2388C12.7603 32.2388 6.63539 27.4661 4.5999 20.8954C2.05696 20.8809 0 18.815 0 16.2687C0 13.7523 2.00877 11.7051 4.51021 11.6432C6.45006 4.91841 12.6507 0 20 0ZM5.71793 11.7712C7.57943 5.64908 13.2694 1.19403 20 1.19403C26.7306 1.19403 32.4206 5.64907 34.2821 11.7712C32.2532 12.2616 30.7463 14.0891 30.7463 16.2687C30.7463 18.4169 32.2103 20.2232 34.195 20.7442C32.2483 26.7234 26.6288 31.0448 20 31.0448C13.3712 31.0448 7.75174 26.7234 5.80498 20.7442C7.78971 20.2232 9.25373 18.4169 9.25373 16.2687C9.25373 14.0891 7.74675 12.2616 5.71793 11.7712Z" fill="var(--fill-0, #1246FF)"/>
</svg>
