<svg preserveAspectRatio="none" width="100%" height="100%" overflow="visible" style="display: block;" viewBox="0 0 14 11" fill="none" xmlns="http://www.w3.org/2000/svg">
<path id="Openwork Logomark" fill-rule="evenodd" clip-rule="evenodd" d="M6.66667 0C9.11645 0 11.1833 1.63947 11.8299 3.88108C12.6637 3.90171 13.3333 4.5841 13.3333 5.42289C13.3333 6.27167 12.6477 6.96031 11.8 6.96515C11.1215 9.15537 9.07989 10.7463 6.66667 10.7463C4.25345 10.7463 2.2118 9.15537 1.5333 6.96515C0.685654 6.96031 0 6.27167 0 5.42289C0 4.5841 0.66959 3.90171 1.5034 3.88108C2.15002 1.63947 4.21688 0 6.66667 0ZM1.90598 3.92372C2.52648 1.88303 4.42315 0.39801 6.66667 0.39801C8.91019 0.39801 10.8069 1.88302 11.4274 3.92372C10.7511 4.0872 10.2488 4.69638 10.2488 5.42289C10.2488 6.13896 10.7368 6.74105 11.3983 6.91473C10.7494 8.90781 8.87626 10.3483 6.66667 10.3483C4.45707 10.3483 2.58391 8.90781 1.93499 6.91473C2.59657 6.74105 3.08458 6.13896 3.08458 5.42289C3.08458 4.69638 2.58225 4.0872 1.90598 3.92372Z" fill="var(--fill-0, #1246FF)"/>
</svg>
