<svg preserveAspectRatio="none" width="100%" height="100%" overflow="visible" style="display: block;" viewBox="0 0 20 20" fill="none" xmlns="http://www.w3.org/2000/svg">
<g id="Radio button checked" clip-path="url(#clip0_107_488)">
<g id="Vector">
</g>
<path id="Vector_2" d="M10.0013 1.66992C5.4013 1.66992 1.66797 5.40326 1.66797 10.0033C1.66797 14.6033 5.4013 18.3366 10.0013 18.3366C14.6013 18.3366 18.3346 14.6033 18.3346 10.0033C18.3346 5.40326 14.6013 1.66992 10.0013 1.66992ZM10.0013 16.6699C6.31797 16.6699 3.33464 13.6866 3.33464 10.0033C3.33464 6.31992 6.31797 3.33659 10.0013 3.33659C13.6846 3.33659 16.668 6.31992 16.668 10.0033C16.668 13.6866 13.6846 16.6699 10.0013 16.6699Z" fill="var(--fill-0, #1246FF)"/>
<path id="Vector_3" d="M10.0007 14.1654C12.3018 14.1654 14.1673 12.2999 14.1673 9.9987C14.1673 7.69751 12.3018 5.83203 10.0007 5.83203C7.69946 5.83203 5.83398 7.69751 5.83398 9.9987C5.83398 12.2999 7.69946 14.1654 10.0007 14.1654Z" fill="var(--fill-0, #1246FF)"/>
</g>
<defs>
<clipPath id="clip0_107_488">
<rect width="20" height="20" fill="white"/>
</clipPath>
</defs>
</svg>
