<svg preserveAspectRatio="none" width="100%" height="100%" overflow="visible" style="display: block;" viewBox="0 0 13 14" fill="none" xmlns="http://www.w3.org/2000/svg">
<g id="Icon">
<path d="M6.57151 9C4.45813 9 2.57871 10.0204 1.38218 11.604C1.12465 11.9448 0.995888 12.1152 1.0001 12.3455C1.00335 12.5235 1.11509 12.7479 1.25509 12.8578C1.43631 13 1.68743 13 2.18967 13H10.9534C11.4556 13 11.7067 13 11.8879 12.8578C12.0279 12.7479 12.1397 12.5235 12.1429 12.3455C12.1471 12.1152 12.0184 11.9448 11.7609 11.604C10.5643 10.0204 8.6849 9 6.57151 9Z" stroke="var(--stroke-0, #1246FF)" stroke-width="1.11111" stroke-linecap="round" stroke-linejoin="round"/>
<path d="M6.57152 7C8.22837 7 9.57151 5.65685 9.57151 4C9.57151 2.34315 8.22837 1 6.57152 1C4.91466 1 3.57152 2.34315 3.57152 4C3.57152 5.65685 4.91466 7 6.57152 7Z" stroke="var(--stroke-0, #1246FF)" stroke-width="1.11111" stroke-linecap="round" stroke-linejoin="round"/>
</g>
</svg>
