<svg width="21" height="21" viewBox="0 0 21 21" fill="none" xmlns="http://www.w3.org/2000/svg">
<g clip-path="url(#clip0_4465_2624)">
<path d="M10.3663 7.8664V11.1997M10.3663 14.5331H10.3747M9.21243 3.60951L2.35836 15.4484C1.97819 16.105 1.7881 16.4333 1.8162 16.7028C1.8407 16.9379 1.96384 17.1514 2.15498 17.2904C2.37411 17.4497 2.75349 17.4497 3.51226 17.4497H17.2204C17.9792 17.4497 18.3586 17.4497 18.5777 17.2904C18.7688 17.1514 18.892 16.9379 18.9165 16.7028C18.9446 16.4333 18.7545 16.105 18.3743 15.4484L11.5202 3.6095C11.1414 2.9552 10.952 2.62805 10.7049 2.51817C10.4894 2.42233 10.2433 2.42233 10.0277 2.51817C9.78064 2.62805 9.59124 2.9552 9.21243 3.60951Z" stroke="#1246FF" style="stroke:#1246FF;stroke:color(display-p3 0.0706 0.2745 1.0000);stroke-opacity:1;" stroke-width="2" stroke-linecap="round" stroke-linejoin="round"/>
</g>
<defs>
<clipPath id="clip0_4465_2624">
<rect width="20" height="20" fill="white" style="fill:white;fill-opacity:1;" transform="translate(0.366211 0.366211)"/>
</clipPath>
</defs>
</svg>
