<svg preserveAspectRatio="none" width="100%" height="100%" overflow="visible" style="display: block;" viewBox="0 0 18 18" fill="none" xmlns="http://www.w3.org/2000/svg">
<g id="Frame 1116599338">
<g id="Union">
<path d="M6.55205 11.6902L6.55348 11.6893V11.6906L6.55205 11.6902Z" fill="#1246FF"/>
<path fill-rule="evenodd" clip-rule="evenodd" d="M9 17C13.4183 17 17 13.4183 17 9C17 4.58172 13.4183 1 9 1C4.58172 1 1 4.58172 1 9C1 13.4183 4.58172 17 9 17ZM15.1561 13.5175C16.0859 12.2525 16.6353 10.6904 16.6353 9C16.6353 8.203 16.5131 7.43453 16.2866 6.71227C16.2732 6.71308 16.2591 6.71638 16.2455 6.71958C16.2383 6.72129 16.2311 6.72298 16.2242 6.72424C16.152 6.73758 16.0809 6.75684 16.0097 6.77612C15.9875 6.78215 15.9652 6.78818 15.9429 6.79403C15.7905 6.83379 15.6383 6.87376 15.486 6.91374C15.2062 6.98719 14.9264 7.06063 14.6461 7.13275C14.2824 7.22628 13.9184 7.3185 13.5461 7.41284C13.387 7.45314 13.2264 7.49384 13.0636 7.53518C13.069 7.57087 13.0749 7.607 13.0808 7.64346C13.0942 7.72597 13.1079 7.81024 13.1166 7.89506C13.1239 7.9646 13.1314 8.03414 13.1388 8.10369C13.168 8.37601 13.1972 8.64862 13.2156 8.92169C13.229 9.12203 13.2373 9.32283 13.2457 9.52361C13.2583 9.8287 13.2709 10.1338 13.3014 10.4371C13.3433 10.8531 13.4323 11.2638 13.654 11.6329C13.7778 11.8391 13.9504 11.9884 14.1479 12.1166C14.413 12.2886 14.6641 12.4774 14.8369 12.7403C15.0479 13.0445 15.1319 13.3409 15.1561 13.5175ZM14.7262 14.0456C14.7258 14.0477 14.7254 14.0499 14.725 14.052C14.3954 14.4253 14.0298 14.766 13.6338 15.0689C13.6365 15.0506 13.6393 15.029 13.6422 15.0046C13.6432 14.999 13.6443 14.9934 13.6455 14.9878C13.6541 14.948 13.657 14.9098 13.6543 14.8739C13.6639 14.7412 13.6681 14.574 13.6539 14.4118C13.6563 14.4018 13.6577 14.3935 13.6567 14.3855C13.6193 14.092 13.5047 13.8287 13.3306 13.5923C13.07 13.2382 12.7318 12.965 12.3936 12.6918C12.3665 12.6699 12.3393 12.648 12.3123 12.626C11.8167 12.2243 11.3379 11.8039 10.999 11.2548C10.9104 11.1115 10.8471 10.952 10.7842 10.7933C10.7675 10.7511 10.7508 10.7091 10.7337 10.6673C10.7228 10.6406 10.7476 10.5842 10.7738 10.559C10.8641 10.5056 10.9479 10.4423 11.0236 10.3705C11.1389 10.4501 11.2545 10.5293 11.3701 10.6085C11.6476 10.7987 11.9251 10.9888 12.198 11.185C12.3275 11.2783 12.4528 11.3775 12.5782 11.4767C12.7201 11.589 12.8621 11.7014 13.0101 11.8051C13.1452 11.8998 13.2865 11.9858 13.4277 12.0717C13.5672 12.1566 13.7066 12.2414 13.84 12.3347C14.2043 12.5893 14.4766 12.9207 14.6152 13.3528C14.6198 13.3672 14.6258 13.3811 14.6328 13.3947C14.6494 13.4439 14.6692 13.5173 14.6862 13.6116C14.6853 13.6153 14.685 13.6189 14.6853 13.6225C14.6868 13.6389 14.6908 13.6551 14.6962 13.6713C14.7124 13.7762 14.7244 13.9023 14.7262 14.0456ZM13.2294 14.6892C13.2303 14.6888 13.2312 14.6884 13.2321 14.6881L13.231 14.69C13.227 14.7551 13.2196 14.8451 13.2088 14.9416L13.2054 14.9441L13.2078 14.9501C13.1995 15.0231 13.1892 15.0994 13.1768 15.1712C13.1742 15.1838 13.1716 15.1965 13.1691 15.2092C13.1558 15.2748 13.1426 15.3405 13.1181 15.4017C13.1126 15.4154 13.1061 15.4293 13.0986 15.4431C12.6951 15.7003 12.2658 15.9206 11.8155 16.0994C11.8318 16.0629 11.8486 16.0267 11.8652 15.9906C11.9212 15.8696 11.9765 15.7499 12.0139 15.6249C12.1061 15.3163 12.0881 15.0022 12.0042 14.6917C11.8884 14.263 11.6438 13.904 11.3987 13.5444C11.3865 13.5264 11.3742 13.5084 11.362 13.4904C11.307 13.4096 11.2516 13.329 11.1962 13.2483C10.9771 12.929 10.7578 12.6095 10.5581 12.2785C10.2875 11.8301 10.1975 11.3261 10.1902 10.8067C10.1899 10.7927 10.1924 10.7787 10.1948 10.7662C10.1952 10.7641 10.1956 10.7619 10.1959 10.7598C10.1964 10.757 10.1969 10.7543 10.1972 10.7517L10.2464 10.7396C10.3523 10.7262 10.4545 10.7007 10.5516 10.6648L10.5768 10.6586C10.6116 10.7505 10.6433 10.8424 10.6748 10.9333C10.744 11.1335 10.8116 11.3292 10.9063 11.5106C11.1332 11.9456 11.4661 12.3031 11.8347 12.6262C11.8902 12.6749 11.946 12.7234 12.0017 12.7718C12.2184 12.9602 12.4352 13.1487 12.6398 13.3494C13.0075 13.7098 13.211 14.1514 13.2256 14.6904C13.2268 14.6899 13.2282 14.6897 13.2294 14.6892ZM11.0718 16.3508C11.0757 16.3478 11.0796 16.3447 11.0833 16.3415C11.219 16.2272 11.336 16.0838 11.4364 15.9359C11.7632 15.4547 11.8259 14.9428 11.5502 14.4179C11.4462 14.2195 11.3191 14.0326 11.1927 13.8465C11.1773 13.8239 11.1619 13.8012 11.1465 13.7786C11.0793 13.6793 11.0107 13.5809 10.9422 13.4825C10.6604 13.078 10.3786 12.6735 10.1897 12.2121C10.0224 11.8041 9.91834 11.3839 9.94485 10.939C9.94725 10.8972 9.95125 10.8556 9.95543 10.812C9.95747 10.7908 9.95956 10.769 9.96153 10.7466C9.24671 10.6913 8.68389 10.0937 8.68389 9.36474C8.68389 9.32491 8.68557 9.28547 8.68886 9.24649C8.67873 9.22516 8.65855 9.20836 8.61889 9.19816C8.11068 9.06758 7.60077 8.95378 7.07725 8.89567C6.53962 8.83585 6.00369 8.81202 5.46509 8.85992L5.46204 8.8602C5.34975 8.87015 5.29368 8.87513 5.2596 8.85013C5.22561 8.82519 5.21348 8.77043 5.18927 8.66106C5.18434 8.63853 5.17765 8.61557 5.17113 8.59336C5.16512 8.57289 5.15911 8.55241 5.15433 8.53166C5.14594 8.49482 5.13755 8.45798 5.12916 8.42114L5.11015 8.33766C5.0183 7.93448 4.92645 7.53124 4.83676 7.12764C4.81418 7.02596 4.79517 6.92348 4.77585 6.81932C4.76708 6.77206 4.75824 6.72437 4.74898 6.67634C4.76331 6.67335 4.77546 6.6704 4.78619 6.66779C4.80604 6.66296 4.82104 6.6593 4.83603 6.65883L4.87169 6.65786C5.03804 6.6533 5.20438 6.64875 5.3705 6.64716L5.37822 6.64709C5.57579 6.64524 5.57866 6.64522 5.65549 6.45652C5.86461 5.94223 6.19141 5.51403 6.61451 5.16023C6.70011 5.0885 6.68965 5.0423 6.63956 4.96619C6.10704 4.15986 5.57573 3.35281 5.04612 2.54479C5.02934 2.51916 5.01405 2.50347 4.99756 2.49662C2.81768 3.84106 1.36474 6.25085 1.36474 9C1.36474 12.3482 3.51988 15.193 6.51862 16.223C6.52838 16.2203 6.53753 16.2168 6.5457 16.2126C7.10789 15.9216 7.61682 15.5583 8.02752 15.0712C8.24223 14.8166 8.40928 14.5304 8.47542 14.2002C8.55494 13.8029 8.46691 13.4335 8.26096 13.0863L8.25244 13.0719C8.09374 12.8039 8.09361 12.8037 7.81378 12.9535C7.81014 12.9555 7.80649 12.9572 7.80284 12.9589C7.48698 13.1065 7.16552 13.2378 6.80661 13.2093C6.50898 13.1858 6.21816 13.017 6.24467 12.6369C6.25901 12.4295 6.2009 12.2299 6.09099 12.0492C6.04381 11.9717 6.0071 11.8975 6.06302 11.8027C6.08004 11.7737 6.06375 11.7098 6.04138 11.6757C6.04025 11.674 6.03912 11.6723 6.03798 11.6706C6.0364 11.6682 6.03481 11.6658 6.03323 11.6634L6.0311 11.6602C5.97696 11.5788 5.93028 11.5086 5.99251 11.3954C6.02355 11.3391 6.02552 11.2659 6.02746 11.194C6.0281 11.1701 6.02874 11.1464 6.03044 11.1235C6.03749 11.0275 6.00442 10.983 5.89159 10.9832C5.67226 10.9835 5.49427 10.9003 5.40211 10.6795C5.37172 10.607 5.39117 10.5662 5.43397 10.5078C5.43943 10.5004 5.4449 10.4929 5.45038 10.4854L5.46655 10.4634C5.57865 10.3105 5.69154 10.1566 5.77998 9.99062C5.94315 9.68424 6.00831 9.34552 6.03871 9.00217C6.04767 8.90121 6.10066 8.90674 6.15669 8.91259C6.16907 8.91388 6.1816 8.91519 6.19384 8.91536C6.26947 8.91634 6.28965 8.95573 6.27579 9.02746C6.26278 9.09569 6.25168 9.16434 6.24059 9.23298C6.22267 9.34388 6.20475 9.45473 6.17877 9.56363C6.09172 9.93008 5.95555 10.2763 5.70655 10.5667C5.63093 10.6549 5.70752 10.7075 5.7564 10.7213C5.83056 10.7425 5.90831 10.7506 5.98624 10.7588C6.02661 10.7631 6.06704 10.7673 6.10704 10.7734C6.14375 10.779 6.20916 10.7923 6.21014 10.8064C6.21283 10.8398 6.21574 10.8733 6.21865 10.9068C6.23284 11.07 6.24709 11.2338 6.2364 11.3959C6.22716 11.5354 6.23348 11.5948 6.36819 11.6434C6.4026 11.6558 6.43868 11.664 6.48094 11.6735C6.50278 11.6784 6.52628 11.6837 6.55205 11.6902C6.52824 11.7044 6.50638 11.7176 6.48579 11.73C6.44455 11.7547 6.40782 11.7768 6.37135 11.798C6.27944 11.8515 6.27433 11.9145 6.32515 12.0079C6.43482 12.2097 6.48321 12.429 6.47834 12.6598C6.47494 12.8166 6.52187 12.8998 6.66777 12.9411C6.77451 12.9713 6.89245 12.9927 7.00114 12.9808C7.26327 12.9521 7.50935 12.8597 7.74132 12.7342C8.15251 12.5117 8.52454 12.2365 8.85573 11.9058C8.86277 11.8987 8.87528 11.897 8.89063 11.895C8.89859 11.8939 8.9074 11.8928 8.91652 11.8907C8.81293 12.2545 8.55251 12.4772 8.27579 12.6892C8.29069 12.7098 8.30459 12.7291 8.31791 12.7476C8.34002 12.7784 8.36053 12.8069 8.38132 12.8351C8.88612 13.5199 8.89682 14.2897 8.42023 14.9922C8.11992 15.4348 7.71676 15.7633 7.28005 16.0577C7.23095 16.0908 7.18207 16.1243 7.13319 16.1578C7.10871 16.1745 7.08424 16.1913 7.05974 16.208C7.06485 16.2219 7.0702 16.2357 7.0753 16.2498C7.15637 16.2366 7.238 16.2254 7.31963 16.2141C7.50165 16.1891 7.68384 16.1641 7.85974 16.1166C8.39008 15.9734 8.87786 15.7287 9.34059 15.4333C9.38118 15.4074 9.42172 15.3814 9.46228 15.3553C9.67368 15.2196 9.88544 15.0836 10.1056 14.9633C10.4968 14.7493 10.9233 14.6311 11.3593 14.5445C11.5497 14.5069 11.5876 14.5297 11.6044 14.7033C11.4978 14.7342 11.3912 14.7639 11.285 14.7935C11.0445 14.8605 10.8053 14.9271 10.571 15.0063C10.21 15.1282 9.89488 15.3372 9.57976 15.5462C9.52726 15.581 9.47476 15.6158 9.42205 15.6502C8.87421 16.0079 8.29889 16.3084 7.64552 16.4283C7.58894 16.4386 7.53292 16.4515 7.4665 16.4668C7.45585 16.4692 7.44461 16.4718 7.43339 16.4744C7.93904 16.5798 8.46305 16.6353 9 16.6353C9.71808 16.6353 10.413 16.5361 11.0718 16.3508ZM6.17909 3.71456L6.19917 3.74501C6.44848 4.123 6.69579 4.49796 6.94108 4.86989C7.02002 4.82901 7.09751 4.78837 7.17405 4.74848C7.36744 4.64767 7.55474 4.55004 7.74375 4.45579C7.80892 4.42321 7.84078 4.38965 7.81476 4.31695C7.75518 4.15038 7.69585 3.98382 7.63749 3.81676C7.5288 3.50576 7.42035 3.19476 7.31287 2.88327C7.18035 2.49956 7.04783 2.11585 6.91847 1.73117C6.90761 1.69884 6.89612 1.67579 6.87947 1.66306C6.31319 1.82643 5.77396 2.05359 5.27005 2.33625C5.57593 2.80007 5.87896 3.25951 6.17909 3.71456ZM7.69555 3.04558L7.7202 3.11716C7.85476 3.50784 7.98864 3.89658 8.12163 4.28266C8.39114 4.22715 8.65167 4.17343 8.91561 4.119L9.17622 4.06527C9.17622 4.05588 9.17628 4.04527 9.17636 4.03381C9.17653 4.00792 9.17672 3.97767 9.17622 3.94734C9.16235 3.33239 9.14849 2.71743 9.13439 2.10223C9.13287 2.03738 9.13112 1.97251 9.12937 1.90763C9.12522 1.75405 9.12107 1.60042 9.12005 1.44692C9.11977 1.4113 9.11467 1.38462 9.10317 1.36542C9.06883 1.36497 9.03444 1.36474 9 1.36474C8.3767 1.36474 7.77084 1.43943 7.19088 1.58034C7.35982 2.07077 7.52819 2.55964 7.69555 3.04558ZM9.41545 1.37585C9.42642 1.81826 9.43728 2.25662 9.44808 2.69267L9.45045 2.78802C9.46112 3.21882 9.47174 3.6475 9.48236 4.07573C9.53916 4.08013 9.59388 4.0833 9.64705 4.08639C9.76142 4.09302 9.86863 4.09924 9.97403 4.11634C10.1683 4.14795 10.3607 4.19512 10.552 4.24254C10.6174 4.25883 10.6447 4.24473 10.6648 4.1815C10.7908 3.78783 10.9182 3.39439 11.0486 3.00193C11.1395 2.72816 11.2322 2.45493 11.3267 2.17649L11.3275 2.17417C11.3726 2.0412 11.4181 1.90703 11.464 1.77105C10.8159 1.55023 10.1287 1.4141 9.41545 1.37585ZM11.7491 1.87463C11.5514 2.46919 11.356 3.05688 11.1626 3.63869L11.1458 3.68938C11.0713 3.91328 10.9972 4.13631 10.9233 4.35853C11.0557 4.44752 11.186 4.53494 11.3164 4.62251L11.3225 4.6266C11.4713 4.72647 11.6204 4.82658 11.7734 4.92947C12.0481 4.65147 12.3249 4.37128 12.6034 4.08948L12.6093 4.08346C12.9701 3.7183 13.3336 3.35045 13.6985 2.98114C13.1115 2.52229 12.4557 2.14742 11.7491 1.87463ZM13.9644 3.19876C13.4268 3.72059 12.8925 4.23892 12.3613 4.75424L11.9682 5.13567C12.1545 5.39901 12.3244 5.63926 12.5002 5.88752C12.9248 5.65775 13.3492 5.42814 13.7745 5.19804L13.8102 5.17874C14.2517 4.93984 14.6943 4.70038 15.1392 4.45963C14.796 3.99634 14.4016 3.57326 13.9644 3.19876ZM15.3212 4.71615C15.3043 4.71906 15.2849 4.72699 15.2613 4.74005C14.9809 4.8954 14.6986 5.0474 14.4163 5.19937C14.2749 5.2755 14.1334 5.35167 13.9923 5.42819C13.8476 5.50666 13.703 5.58545 13.5585 5.66424C13.2745 5.81913 12.9904 5.974 12.705 6.12631C12.6461 6.15767 12.6291 6.17859 12.6529 6.24473C12.7597 6.53919 12.8655 6.83391 12.9603 7.13226C12.9912 7.22929 13.032 7.23512 13.1181 7.21275C13.4008 7.1396 13.6841 7.06857 13.9674 6.99755C14.1916 6.94132 14.4159 6.8851 14.6398 6.82783C14.8044 6.78576 14.9684 6.74104 15.1324 6.6963C15.2442 6.66579 15.3562 6.63525 15.4683 6.60558C15.6395 6.56021 15.8111 6.51602 15.9905 6.46979C16.0552 6.45314 16.1209 6.43622 16.188 6.41888C15.97 5.81202 15.6774 5.24074 15.3212 4.71615ZM9.56992 8.07165C9.19995 8.2148 8.90677 8.51215 8.76921 8.88486C8.73177 8.91035 8.68425 8.90784 8.61719 8.89275C8.17342 8.79233 7.72795 8.6992 7.28077 8.6153C6.80622 8.52615 6.32657 8.53264 5.84724 8.53912C5.74353 8.54052 5.63972 8.54192 5.53609 8.54236C5.52353 8.54236 5.51087 8.54087 5.49578 8.5391C5.48721 8.5381 5.47785 8.537 5.46728 8.53603C5.40344 8.24776 5.3396 7.95993 5.2752 7.66957L5.27344 7.66162C5.22092 7.42483 5.16803 7.18634 5.11445 6.94454C6.69935 6.96028 8.16764 7.33982 9.56992 8.07165ZM9.95514 7.98341C9.89 7.96125 9.83278 7.92489 9.77245 7.88606C9.1395 7.47925 8.45767 7.18041 7.73427 6.97689C7.29512 6.85336 6.85087 6.75415 6.39494 6.71476C6.2912 6.70581 6.18758 6.6937 6.07469 6.6805C6.02192 6.67434 5.96713 6.66793 5.90935 6.6615C5.92186 6.62924 5.93324 6.59777 5.94433 6.56709C5.96791 6.50183 5.99023 6.44008 6.0195 6.38187C6.28552 5.85202 6.68576 5.44327 7.17208 5.11257C7.54047 4.86187 7.93828 4.67172 8.36625 4.55184C8.91214 4.39889 9.46242 4.33664 10.0314 4.44315C10.7845 4.58418 11.3931 4.94843 11.8697 5.5415C12.1924 5.94296 12.4283 6.39354 12.5632 6.88862C12.6763 7.30394 12.7835 7.72485 12.8414 8.15014C12.894 8.53603 12.9069 8.92807 12.9197 9.31908C12.9217 9.38167 12.9238 9.44423 12.926 9.50673C12.9459 10.0658 12.9934 10.6197 13.1521 11.1585C13.1772 11.2434 13.2124 11.3252 13.2476 11.4069C13.264 11.445 13.2805 11.4831 13.2959 11.5216C13.2923 11.5246 13.2889 11.5277 13.2854 11.5308C13.2819 11.5339 13.2785 11.537 13.2749 11.54C12.7679 11.2028 12.261 10.8653 11.7592 10.5316L11.221 10.1737C11.232 10.1433 11.2435 10.1133 11.255 10.0838C11.3825 9.87418 11.4559 9.62803 11.4559 9.36474C11.4559 8.59926 10.8354 7.97872 10.0699 7.97872C10.0313 7.97872 9.99299 7.98031 9.95514 7.98341ZM10.0699 10.459C10.6742 10.459 11.1641 9.96907 11.1641 9.36474C11.1641 8.76042 10.6742 8.27052 10.0699 8.27052C9.46559 8.27052 8.97568 8.76042 8.97568 9.36474C8.97568 9.96907 9.46559 10.459 10.0699 10.459Z" fill="#1246FF"/>
<path d="M6.55205 11.6902C6.52628 11.6837 6.50278 11.6784 6.48094 11.6735C6.43868 11.664 6.4026 11.6558 6.36819 11.6434C6.23348 11.5948 6.22716 11.5354 6.2364 11.3959C6.24709 11.2338 6.23284 11.07 6.21865 10.9068C6.21574 10.8733 6.21283 10.8398 6.21014 10.8064C6.20916 10.7923 6.14375 10.779 6.10704 10.7734C6.06704 10.7673 6.02661 10.7631 5.98624 10.7588C5.90831 10.7506 5.83056 10.7425 5.7564 10.7213C5.70752 10.7075 5.63093 10.6549 5.70655 10.5667C5.95555 10.2763 6.09172 9.93008 6.17877 9.56363C6.20475 9.45473 6.22267 9.34388 6.24059 9.23298C6.25168 9.16434 6.26278 9.09569 6.27579 9.02746C6.28965 8.95573 6.26947 8.91634 6.19384 8.91536C6.1816 8.91519 6.16907 8.91388 6.15669 8.91259C6.10066 8.90674 6.04767 8.90121 6.03871 9.00217C6.00831 9.34552 5.94315 9.68424 5.77998 9.99062C5.69154 10.1566 5.57865 10.3105 5.46655 10.4634L5.45038 10.4854C5.4449 10.4929 5.43943 10.5004 5.43397 10.5078C5.39117 10.5662 5.37172 10.607 5.40211 10.6795C5.49427 10.9003 5.67226 10.9835 5.89159 10.9832C6.00442 10.983 6.03749 11.0275 6.03044 11.1235C6.02874 11.1464 6.0281 11.1701 6.02746 11.194C6.02552 11.2659 6.02355 11.3391 5.99251 11.3954C5.93028 11.5086 5.97696 11.5788 6.0311 11.6602L6.03323 11.6634C6.03481 11.6658 6.0364 11.6682 6.03798 11.6706C6.03912 11.6723 6.04025 11.674 6.04138 11.6757C6.06375 11.7098 6.08004 11.7737 6.06302 11.8027C6.0071 11.8975 6.04381 11.9717 6.09099 12.0492C6.2009 12.2299 6.25901 12.4295 6.24467 12.6369C6.21816 13.017 6.50898 13.1858 6.80661 13.2093C7.16552 13.2378 7.48698 13.1065 7.80284 12.9589C7.80649 12.9572 7.81014 12.9555 7.81378 12.9535C8.09361 12.8037 8.09374 12.8039 8.25244 13.0719L8.26096 13.0863C8.46691 13.4335 8.55494 13.8029 8.47542 14.2002C8.40928 14.5304 8.24223 14.8166 8.02752 15.0712C7.61682 15.5583 7.10789 15.9216 6.5457 16.2126C6.53753 16.2168 6.52838 16.2203 6.51862 16.223C3.51988 15.193 1.36474 12.3482 1.36474 9C1.36474 6.25085 2.81768 3.84106 4.99756 2.49662C5.01405 2.50347 5.02934 2.51916 5.04612 2.54479C5.57573 3.35281 6.10704 4.15986 6.63956 4.96619C6.68965 5.0423 6.70011 5.0885 6.61451 5.16023C6.19141 5.51403 5.86461 5.94223 5.65549 6.45652C5.57866 6.64522 5.57579 6.64524 5.37822 6.64709L5.3705 6.64716C5.20438 6.64875 5.03804 6.6533 4.87169 6.65786L4.83603 6.65883C4.82104 6.6593 4.80604 6.66296 4.78619 6.66779C4.77546 6.6704 4.76331 6.67335 4.74898 6.67634C4.75824 6.72437 4.76708 6.77206 4.77585 6.81932C4.79517 6.92348 4.81418 7.02596 4.83676 7.12764C4.92645 7.53124 5.0183 7.93448 5.11015 8.33766L5.12916 8.42114C5.13755 8.45798 5.14594 8.49482 5.15433 8.53166C5.15911 8.55241 5.16512 8.57289 5.17113 8.59336C5.17765 8.61557 5.18434 8.63853 5.18927 8.66106C5.21348 8.77043 5.22561 8.82519 5.2596 8.85013C5.29368 8.87513 5.34975 8.87015 5.46204 8.8602L5.46509 8.85992C6.00369 8.81202 6.53962 8.83585 7.07725 8.89567C7.60077 8.95378 8.11068 9.06758 8.61889 9.19816C8.65855 9.20836 8.67873 9.22516 8.68886 9.24649C8.68557 9.28547 8.68389 9.32491 8.68389 9.36474C8.68389 10.0937 9.24671 10.6913 9.96153 10.7466C9.95956 10.769 9.95747 10.7908 9.95543 10.812C9.95125 10.8556 9.94725 10.8972 9.94485 10.939C9.91834 11.3839 10.0224 11.8041 10.1897 12.2121C10.3786 12.6735 10.6604 13.078 10.9422 13.4825C11.0107 13.5809 11.0793 13.6793 11.1465 13.7786C11.1619 13.8012 11.1773 13.8239 11.1927 13.8465C11.3191 14.0326 11.4462 14.2195 11.5502 14.4179C11.8259 14.9428 11.7632 15.4547 11.4364 15.9359C11.336 16.0838 11.219 16.2272 11.0833 16.3415C11.0796 16.3447 11.0757 16.3478 11.0718 16.3508C10.413 16.5361 9.71808 16.6353 9 16.6353C8.46305 16.6353 7.93904 16.5798 7.43339 16.4744C7.44461 16.4718 7.45585 16.4692 7.4665 16.4668C7.53292 16.4515 7.58894 16.4386 7.64552 16.4283C8.29889 16.3084 8.87421 16.0079 9.42205 15.6502C9.47476 15.6158 9.52726 15.581 9.57976 15.5462C9.89488 15.3372 10.21 15.1282 10.571 15.0063C10.8053 14.9271 11.0445 14.8605 11.285 14.7935C11.3912 14.7639 11.4978 14.7342 11.6044 14.7033C11.5876 14.5297 11.5497 14.5069 11.3593 14.5445C10.9233 14.6311 10.4968 14.7493 10.1056 14.9633C9.88544 15.0836 9.67368 15.2196 9.46228 15.3553C9.42172 15.3814 9.38118 15.4074 9.34059 15.4333C8.87786 15.7287 8.39008 15.9734 7.85974 16.1166C7.68384 16.1641 7.50165 16.1891 7.31963 16.2141C7.238 16.2254 7.15637 16.2366 7.0753 16.2498C7.0702 16.2357 7.06485 16.2219 7.05974 16.208C7.08424 16.1913 7.10871 16.1745 7.13319 16.1578C7.18207 16.1243 7.23095 16.0908 7.28005 16.0577C7.71676 15.7633 8.11992 15.4348 8.42023 14.9922C8.89682 14.2897 8.88612 13.5199 8.38132 12.8351C8.36053 12.8069 8.34002 12.7784 8.31791 12.7476C8.30459 12.7291 8.29069 12.7098 8.27579 12.6892C8.55251 12.4772 8.81293 12.2545 8.91652 11.8907C8.9074 11.8928 8.89859 11.8939 8.89063 11.895C8.87528 11.897 8.86277 11.8987 8.85573 11.9058C8.52454 12.2365 8.15251 12.5117 7.74132 12.7342C7.50935 12.8597 7.26327 12.9521 7.00114 12.9808C6.89245 12.9927 6.77451 12.9713 6.66777 12.9411C6.52187 12.8998 6.47494 12.8166 6.47834 12.6598C6.48321 12.429 6.43482 12.2097 6.32515 12.0079C6.27433 11.9145 6.27944 11.8515 6.37135 11.798C6.40782 11.7768 6.44455 11.7547 6.48579 11.73C6.50638 11.7176 6.52824 11.7044 6.55205 11.6902ZM6.55205 11.6902L6.55348 11.6893V11.6906L6.55205 11.6902ZM16.6353 9C16.6353 10.6904 16.0859 12.2525 15.1561 13.5175C15.1319 13.3409 15.0479 13.0445 14.8369 12.7403C14.6641 12.4774 14.413 12.2886 14.1479 12.1166C13.9504 11.9884 13.7778 11.8391 13.654 11.6329C13.4323 11.2638 13.3433 10.8531 13.3014 10.4371C13.2709 10.1338 13.2583 9.8287 13.2457 9.52361C13.2373 9.32283 13.229 9.12203 13.2156 8.92169C13.1972 8.64862 13.168 8.37601 13.1388 8.10369C13.1314 8.03414 13.1239 7.9646 13.1166 7.89506C13.1079 7.81024 13.0942 7.72597 13.0808 7.64346C13.0749 7.607 13.069 7.57087 13.0636 7.53518C13.2264 7.49384 13.387 7.45314 13.5461 7.41284C13.9184 7.3185 14.2824 7.22628 14.6461 7.13275C14.9264 7.06063 15.2062 6.98719 15.486 6.91374C15.6383 6.87376 15.7905 6.83379 15.9429 6.79403C15.9652 6.78818 15.9875 6.78215 16.0097 6.77612C16.0809 6.75684 16.152 6.73758 16.2242 6.72424C16.2311 6.72298 16.2383 6.72129 16.2455 6.71958C16.2591 6.71638 16.2732 6.71308 16.2866 6.71227C16.5131 7.43453 16.6353 8.203 16.6353 9ZM14.7262 14.0456C14.7258 14.0477 14.7254 14.0499 14.725 14.052C14.3954 14.4253 14.0298 14.766 13.6338 15.0689C13.6365 15.0506 13.6393 15.029 13.6422 15.0046C13.6432 14.999 13.6443 14.9934 13.6455 14.9878C13.6541 14.948 13.657 14.9098 13.6543 14.8739C13.6639 14.7412 13.6681 14.574 13.6539 14.4118C13.6563 14.4018 13.6577 14.3935 13.6567 14.3855C13.6193 14.092 13.5047 13.8287 13.3306 13.5923C13.07 13.2382 12.7318 12.965 12.3936 12.6918C12.3665 12.6699 12.3393 12.648 12.3123 12.626C11.8167 12.2243 11.3379 11.8039 10.999 11.2548C10.9104 11.1115 10.8471 10.952 10.7842 10.7933C10.7675 10.7511 10.7508 10.7091 10.7337 10.6673C10.7228 10.6406 10.7476 10.5842 10.7738 10.559C10.8641 10.5056 10.9479 10.4423 11.0236 10.3705C11.1389 10.4501 11.2545 10.5293 11.3701 10.6085C11.6476 10.7987 11.9251 10.9888 12.198 11.185C12.3275 11.2783 12.4528 11.3775 12.5782 11.4767C12.7201 11.589 12.8621 11.7014 13.0101 11.8051C13.1452 11.8998 13.2865 11.9858 13.4277 12.0717C13.5672 12.1566 13.7066 12.2414 13.84 12.3347C14.2043 12.5893 14.4766 12.9207 14.6152 13.3528C14.6198 13.3672 14.6258 13.3811 14.6328 13.3947C14.6494 13.4439 14.6692 13.5173 14.6862 13.6116C14.6853 13.6153 14.685 13.6189 14.6853 13.6225C14.6868 13.6389 14.6908 13.6551 14.6962 13.6713C14.7124 13.7762 14.7244 13.9023 14.7262 14.0456ZM13.2321 14.6881C13.2312 14.6884 13.2303 14.6888 13.2294 14.6892C13.2282 14.6897 13.2268 14.6899 13.2256 14.6904C13.211 14.1514 13.0075 13.7098 12.6398 13.3494C12.4352 13.1487 12.2184 12.9602 12.0017 12.7718C11.946 12.7234 11.8902 12.6749 11.8347 12.6262C11.4661 12.3031 11.1332 11.9456 10.9063 11.5106C10.8116 11.3292 10.744 11.1335 10.6748 10.9333C10.6433 10.8424 10.6116 10.7505 10.5768 10.6586L10.5516 10.6648C10.4545 10.7007 10.3523 10.7262 10.2464 10.7396L10.1972 10.7517C10.1969 10.7543 10.1964 10.757 10.1959 10.7598C10.1956 10.7619 10.1952 10.7641 10.1948 10.7662C10.1924 10.7787 10.1899 10.7927 10.1902 10.8067C10.1975 11.3261 10.2875 11.8301 10.5581 12.2785C10.7578 12.6095 10.9771 12.929 11.1962 13.2483C11.2516 13.329 11.307 13.4096 11.362 13.4904C11.3742 13.5084 11.3865 13.5264 11.3987 13.5444C11.6438 13.904 11.8884 14.263 12.0042 14.6917C12.0881 15.0022 12.1061 15.3163 12.0139 15.6249C11.9765 15.7499 11.9212 15.8696 11.8652 15.9906C11.8486 16.0267 11.8318 16.0629 11.8155 16.0994C12.2658 15.9206 12.6951 15.7003 13.0986 15.4431C13.1061 15.4293 13.1126 15.4154 13.1181 15.4017C13.1426 15.3405 13.1558 15.2748 13.1691 15.2092C13.1716 15.1965 13.1742 15.1838 13.1768 15.1712C13.1892 15.0994 13.1995 15.0231 13.2078 14.9501L13.2054 14.9441L13.2088 14.9416C13.2196 14.8451 13.227 14.7551 13.231 14.69L13.2321 14.6881ZM6.17909 3.71456C5.87896 3.25951 5.57593 2.80007 5.27005 2.33625C5.77396 2.05359 6.31319 1.82643 6.87947 1.66306C6.89612 1.67579 6.90761 1.69884 6.91847 1.73117C7.04783 2.11585 7.18035 2.49956 7.31287 2.88327C7.42035 3.19476 7.5288 3.50576 7.63749 3.81676C7.69585 3.98382 7.75518 4.15038 7.81476 4.31695C7.84078 4.38965 7.80892 4.42321 7.74375 4.45579C7.55474 4.55004 7.36744 4.64767 7.17405 4.74848C7.09751 4.78837 7.02002 4.82901 6.94108 4.86989C6.69579 4.49796 6.44848 4.123 6.19917 3.74501L6.17909 3.71456ZM7.69555 3.04558C7.52819 2.55964 7.35982 2.07077 7.19088 1.58034C7.77084 1.43943 8.3767 1.36474 9 1.36474C9.03444 1.36474 9.06883 1.36497 9.10317 1.36542C9.11467 1.38462 9.11977 1.4113 9.12005 1.44692C9.12107 1.60042 9.12522 1.75405 9.12937 1.90763C9.13112 1.97251 9.13287 2.03738 9.13439 2.10223C9.14849 2.71743 9.16235 3.33239 9.17622 3.94734C9.17672 3.97767 9.17653 4.00792 9.17636 4.03381C9.17628 4.04527 9.17622 4.05588 9.17622 4.06527L8.91561 4.119C8.65167 4.17343 8.39114 4.22715 8.12163 4.28266C7.98864 3.89658 7.85476 3.50784 7.7202 3.11716L7.69555 3.04558ZM9.44808 2.69267C9.43728 2.25662 9.42642 1.81826 9.41545 1.37585C10.1287 1.4141 10.8159 1.55023 11.464 1.77105C11.4181 1.90703 11.3726 2.0412 11.3275 2.17417L11.3267 2.17649C11.2322 2.45493 11.1395 2.72816 11.0486 3.00193C10.9182 3.39439 10.7908 3.78783 10.6648 4.1815C10.6447 4.24473 10.6174 4.25883 10.552 4.24254C10.3607 4.19512 10.1683 4.14795 9.97403 4.11634C9.86863 4.09924 9.76142 4.09302 9.64705 4.08639C9.59388 4.0833 9.53916 4.08013 9.48236 4.07573C9.47174 3.6475 9.46112 3.21882 9.45045 2.78802L9.44808 2.69267ZM11.1626 3.63869C11.356 3.05688 11.5514 2.46919 11.7491 1.87463C12.4557 2.14742 13.1115 2.52229 13.6985 2.98114C13.3336 3.35045 12.9701 3.7183 12.6093 4.08346L12.6034 4.08948C12.3249 4.37128 12.0481 4.65147 11.7734 4.92947C11.6204 4.82658 11.4713 4.72647 11.3225 4.6266L11.3164 4.62251C11.186 4.53494 11.0557 4.44752 10.9233 4.35853C10.9972 4.13631 11.0713 3.91328 11.1458 3.68938L11.1626 3.63869ZM12.3613 4.75424C12.8925 4.23892 13.4268 3.72059 13.9644 3.19876C14.4016 3.57326 14.796 3.99634 15.1392 4.45963C14.6943 4.70038 14.2517 4.93984 13.8102 5.17874L13.7745 5.19804C13.3492 5.42814 12.9248 5.65775 12.5002 5.88752C12.3244 5.63926 12.1545 5.39901 11.9682 5.13567L12.3613 4.75424ZM15.2613 4.74005C15.2849 4.72699 15.3043 4.71906 15.3212 4.71615C15.6774 5.24074 15.97 5.81202 16.188 6.41888C16.1209 6.43622 16.0552 6.45314 15.9905 6.46979C15.8111 6.51602 15.6395 6.56021 15.4683 6.60558C15.3562 6.63525 15.2442 6.66579 15.1324 6.6963C14.9684 6.74104 14.8044 6.78576 14.6398 6.82783C14.4159 6.8851 14.1916 6.94132 13.9674 6.99755C13.6841 7.06857 13.4008 7.1396 13.1181 7.21275C13.032 7.23512 12.9912 7.22929 12.9603 7.13226C12.8655 6.83391 12.7597 6.53919 12.6529 6.24473C12.6291 6.17859 12.6461 6.15767 12.705 6.12631C12.9904 5.974 13.2745 5.81913 13.5585 5.66424C13.703 5.58545 13.8476 5.50666 13.9923 5.42819C14.1334 5.35167 14.2749 5.2755 14.4163 5.19937C14.6986 5.0474 14.9809 4.8954 15.2613 4.74005ZM8.76921 8.88486C8.90677 8.51215 9.19995 8.2148 9.56992 8.07165C8.16764 7.33982 6.69935 6.96028 5.11445 6.94454C5.16803 7.18634 5.22092 7.42483 5.27344 7.66162L5.2752 7.66957C5.3396 7.95993 5.40344 8.24776 5.46728 8.53603C5.47785 8.537 5.48721 8.5381 5.49578 8.5391C5.51087 8.54087 5.52353 8.54236 5.53609 8.54236C5.63972 8.54192 5.74353 8.54052 5.84724 8.53912C6.32657 8.53264 6.80622 8.52615 7.28077 8.6153C7.72795 8.6992 8.17342 8.79233 8.61719 8.89275C8.68425 8.90784 8.73177 8.91035 8.76921 8.88486ZM9.77245 7.88606C9.83278 7.92489 9.89 7.96125 9.95514 7.98341C9.99299 7.98031 10.0313 7.97872 10.0699 7.97872C10.8354 7.97872 11.4559 8.59926 11.4559 9.36474C11.4559 9.62803 11.3825 9.87418 11.255 10.0838C11.2435 10.1133 11.232 10.1433 11.221 10.1737L11.7592 10.5316C12.261 10.8653 12.7679 11.2028 13.2749 11.54C13.2785 11.537 13.2819 11.5339 13.2854 11.5308C13.2889 11.5277 13.2923 11.5246 13.2959 11.5216C13.2805 11.4831 13.264 11.445 13.2476 11.4069C13.2124 11.3252 13.1772 11.2434 13.1521 11.1585C12.9934 10.6197 12.9459 10.0658 12.926 9.50673C12.9238 9.44423 12.9217 9.38167 12.9197 9.31908C12.9069 8.92807 12.894 8.53603 12.8414 8.15014C12.7835 7.72485 12.6763 7.30394 12.5632 6.88862C12.4283 6.39354 12.1924 5.94296 11.8697 5.5415C11.3931 4.94843 10.7845 4.58418 10.0314 4.44315C9.46242 4.33664 8.91214 4.39889 8.36625 4.55184C7.93828 4.67172 7.54047 4.86187 7.17208 5.11257C6.68576 5.44327 6.28552 5.85202 6.0195 6.38187C5.99023 6.44008 5.96791 6.50183 5.94433 6.56709C5.93324 6.59777 5.92186 6.62924 5.90935 6.6615C5.96713 6.66793 6.02192 6.67434 6.07469 6.6805C6.18758 6.6937 6.2912 6.70581 6.39494 6.71476C6.85087 6.75415 7.29512 6.85336 7.73427 6.97689C8.45767 7.18041 9.1395 7.47925 9.77245 7.88606ZM17 9C17 13.4183 13.4183 17 9 17C4.58172 17 1 13.4183 1 9C1 4.58172 4.58172 1 9 1C13.4183 1 17 4.58172 17 9ZM11.1641 9.36474C11.1641 9.96907 10.6742 10.459 10.0699 10.459C9.46559 10.459 8.97568 9.96907 8.97568 9.36474C8.97568 8.76042 9.46559 8.27052 10.0699 8.27052C10.6742 8.27052 11.1641 8.76042 11.1641 9.36474Z" stroke="var(--stroke-0, #1246FF)" stroke-width="0.4"/>
</g>
</g>
</svg>
