<svg preserveAspectRatio="none" width="100%" height="100%" overflow="visible" style="display: block;" viewBox="0 0 15 14" fill="none" xmlns="http://www.w3.org/2000/svg">
<path id="Icon" d="M12.1451 6L2.81175 6M12.1451 6L13.3878 8.07128C13.6664 8.53549 13.8056 8.76759 13.878 9.01743C13.942 9.23883 13.9674 9.46963 13.9528 9.69966C13.9364 9.95924 13.8508 10.216 13.6797 10.7296L13.5411 11.1453C13.2788 11.9321 13.1477 12.3255 12.9045 12.6164C12.6897 12.8732 12.4138 13.072 12.1022 13.1946C11.7494 13.3333 11.3347 13.3333 10.5053 13.3333L4.45151 13.3333C3.62213 13.3333 3.20744 13.3333 2.85458 13.1946C2.543 13.072 2.26716 12.8732 2.05237 12.6164C1.80913 12.3255 1.67799 11.9321 1.41572 11.1453L1.27717 10.7296C1.10598 10.216 1.02038 9.95924 1.00398 9.69966C0.989447 9.46963 1.01478 9.23883 1.07887 9.01743C1.15119 8.76759 1.29045 8.53548 1.56898 8.07128L2.81175 6M12.1451 6L12.4233 5.02637C12.5551 4.56478 12.6211 4.33398 12.5693 4.15139C12.5239 3.99143 12.4204 3.85421 12.2791 3.76664C12.1177 3.66667 11.8777 3.66667 11.3976 3.66667L3.55919 3.66667C3.07913 3.66667 2.8391 3.66667 2.67776 3.76664C2.53643 3.85421 2.43292 3.99143 2.38754 4.15138C2.33574 4.33398 2.40168 4.56478 2.53356 5.02637L2.81175 6M7.47841 3.66667H5.12127C4.77396 3.66667 4.44088 3.52619 4.1953 3.27614C3.94971 3.02609 3.81175 2.68696 3.81175 2.33333C3.81175 1.97971 3.94971 1.64057 4.1953 1.39052C4.44088 1.14048 4.77396 1 5.12127 1C6.9546 1 7.47841 3.66667 7.47841 3.66667ZM7.47841 3.66667H9.83556C10.1829 3.66667 10.5159 3.52619 10.7615 3.27614C11.0071 3.02609 11.1451 2.68696 11.1451 2.33333C11.1451 1.97971 11.0071 1.64057 10.7615 1.39052C10.5159 1.14048 10.1829 1 9.83556 1C8.00222 1 7.47841 3.66667 7.47841 3.66667Z" stroke="var(--stroke-0, #1246FF)" stroke-width="1.11111" stroke-linecap="round" stroke-linejoin="round"/>
</svg>
