<svg preserveAspectRatio="none" width="100%" height="100%" overflow="visible" style="display: block;" viewBox="0 0 14 13" fill="none" xmlns="http://www.w3.org/2000/svg">
<path id="Icon" d="M6.99998 12.4142H13M1 12.4142H2.11636C2.44248 12.4142 2.60554 12.4142 2.75899 12.3774C2.89504 12.3447 3.0251 12.2908 3.1444 12.2177C3.27895 12.1353 3.39425 12.02 3.62486 11.7894L12 3.41421C12.5523 2.86193 12.5523 1.9665 12 1.41421C11.4477 0.861929 10.5523 0.861929 10 1.41421L1.62484 9.78937C1.39424 10.02 1.27894 10.1353 1.19648 10.2698C1.12338 10.3891 1.0695 10.5192 1.03684 10.6552C1 10.8087 1 10.9717 1 11.2979V12.4142Z" stroke="var(--stroke-0, #1246FF)" stroke-width="1.11111" stroke-linecap="round" stroke-linejoin="round"/>
</svg>
