<svg preserveAspectRatio="none" width="100%" height="100%" overflow="visible" style="display: block;" viewBox="0 0 15 15" fill="none" xmlns="http://www.w3.org/2000/svg">
<path id="Icon" d="M4.33333 14.3333V7M1 8.33333V13C1 13.7364 1.59695 14.3333 2.33333 14.3333H11.2842C12.2713 14.3333 13.1108 13.6131 13.2609 12.6374L13.9789 7.97078C14.1652 6.75926 13.2279 5.66667 12.0021 5.66667H9.66667C9.29848 5.66667 9 5.36819 9 5V2.64389C9 1.736 8.264 1 7.35611 1C7.13956 1 6.94332 1.12753 6.85537 1.32542L4.50929 6.60409C4.40229 6.84484 4.16354 7 3.90008 7H2.33333C1.59695 7 1 7.59695 1 8.33333Z" stroke="var(--stroke-0, #067647)" stroke-width="1.11111" stroke-linecap="round" stroke-linejoin="round"/>
</svg>
