<svg width="21" height="21" viewBox="0 0 21 21" fill="none" xmlns="http://www.w3.org/2000/svg">
<path d="M7.86621 9.53288L10.3662 12.0329L18.6995 3.69954M13.6995 2.86621H6.86621C5.46608 2.86621 4.76601 2.86621 4.23123 3.13869C3.76083 3.37838 3.37838 3.76083 3.13869 4.23123C2.86621 4.76601 2.86621 5.46608 2.86621 6.86621V13.8662C2.86621 15.2663 2.86621 15.9664 3.13869 16.5012C3.37838 16.9716 3.76083 17.354 4.23123 17.5937C4.76601 17.8662 5.46608 17.8662 6.86621 17.8662H13.8662C15.2663 17.8662 15.9664 17.8662 16.5012 17.5937C16.9716 17.354 17.354 16.9716 17.5937 16.5012C17.8662 15.9664 17.8662 15.2663 17.8662 13.8662V10.3662" stroke="#1246FF" style="stroke:#1246FF;stroke:color(display-p3 0.0706 0.2745 1.0000);stroke-opacity:1;" stroke-width="2" stroke-linecap="round" stroke-linejoin="round"/>
</svg>
